<?xml version="1.0" encoding="UTF-8" standalone="no"?>
<svg width="35px" height="35px" viewBox="0 0 35 35" version="1.1" xmlns="http://www.w3.org/2000/svg" xmlns:xlink="http://www.w3.org/1999/xlink" xmlns:sketch="http://www.bohemiancoding.com/sketch/ns">
    <!-- Generator: Sketch 3.5.2 (25235) - http://www.bohemiancoding.com/sketch -->
    <title>Fill 1520</title>
    <desc>Created with Sketch.</desc>
    <defs></defs>
    <g id="Page-1" stroke="none" stroke-width="1" fill="none" fill-rule="evenodd" sketch:type="MSPage">
        <g id="Homepage" sketch:type="MSArtboardGroup" transform="translate(-703.000000, -1420.000000)" fill="#A00054">
            <g id="Actions" sketch:type="MSLayerGroup" transform="translate(-141.000000, 1371.000000)">
                <path d="M854.278269,77.2383491 L854.278269,84 L868.500161,84 L868.500161,77.2383491 C868.500161,77.2383491 868.499624,71.4425716 862.887233,71.0747223 C864.908253,70.4761605 866.382877,68.6089488 866.382877,66.394324 C866.382877,63.6973003 864.196755,61.5111784 861.499731,61.5111784 C858.803245,61.5111784 856.616585,63.6973003 856.616585,66.394324 C856.616585,68.6089488 858.092285,70.4766983 860.113305,71.0747223 C858.812925,71.1833561 854.278269,71.941642 854.278269,77.2383491 M850.348627,66.5002689 C850.348627,69.1951414 851.30482,71.6673684 852.896145,73.5953504 C853.204837,72.7827477 853.653893,72.1443893 854.169097,71.64263 C853.146218,70.1868287 852.543891,68.4142684 852.543891,66.5002689 C852.543891,61.5536639 856.553664,57.5438915 861.499731,57.5438915 C866.446336,57.5438915 870.456109,61.5536639 870.456109,66.5002689 C870.456109,68.4777278 869.813448,70.304605 868.728185,71.786758 C869.283186,72.4417879 869.644581,73.1747976 869.880134,73.8534903 C871.603755,71.890014 872.651373,69.3177579 872.651373,66.5002689 C872.651373,60.3414822 867.658518,55.3486271 861.499731,55.3486271 C855.341482,55.3486271 850.348627,60.3414822 850.348627,66.5002689 M879,66.5002689 C879,56.8350824 871.164918,49 861.499731,49 C851.835082,49 844,56.8350824 844,66.5002689 C844,72.8569629 847.389699,78.4209524 852.459458,81.4863631 L852.459458,78.9210983 C848.627157,76.1267344 846.135032,71.6055223 846.135032,66.5002689 C846.135032,58.0139211 853.013921,51.1350317 861.499731,51.1350317 C869.986079,51.1350317 876.864968,58.0139211 876.864968,66.5002689 C876.864968,71.7034004 874.276041,76.2993654 870.318434,79.0786712 L870.318434,81.6132819 C875.509734,78.5774496 879,72.9478496 879,66.5002689" id="Fill-1520" sketch:type="MSShapeGroup"></path>
            </g>
        </g>
    </g>
</svg>