<?xml version="1.0" encoding="UTF-8" standalone="no"?>
<svg width="76px" height="48px" viewBox="0 0 76 48" version="1.1" xmlns="http://www.w3.org/2000/svg" xmlns:xlink="http://www.w3.org/1999/xlink" xmlns:sketch="http://www.bohemiancoding.com/sketch/ns">
    <!-- Generator: Sketch 3.5.2 (25235) - http://www.bohemiancoding.com/sketch -->
    <title>Logo</title>
    <desc>Created with Sketch.</desc>
    <defs></defs>
    <g id="Page-1" stroke="none" stroke-width="1" fill="none" fill-rule="evenodd" sketch:type="MSPage">
        <g id="Homepage" sketch:type="MSArtboardGroup" transform="translate(-1115.000000, -21.000000)" fill="#FFFFFF">
            <g id="Header" sketch:type="MSLayerGroup" transform="translate(-44.000000, 0.000000)">
                <g id="Logo" transform="translate(1159.000000, 21.000000)" sketch:type="MSShapeGroup">
                    <path d="M18.5863148,0 L74.5005013,0 L74.5005013,22.464 L18.5863148,22.464 L18.5863148,0 Z M20.1644997,20.2490811 L24.757471,20.2490811 L27.2889853,7.73816216 L27.3408993,7.73816216 L31.1513853,20.2490811 L37.2054991,20.2490811 L41.0678991,2.16713514 L36.4749279,2.16713514 L33.9169846,14.7061622 L33.8660145,14.7061622 L30.1329275,2.16713514 L24.0533286,2.16713514 L20.1644997,20.2490811 L20.1644997,20.2490811 Z M39.0819535,20.2490811 L43.9618674,20.2490811 L45.5806397,12.5034234 L51.3478108,12.5034234 L49.7290385,20.2490811 L54.6098964,20.2490811 L58.3939535,2.16713514 L53.5140395,2.16713514 L52.078382,9.08454054 L46.3102671,9.08454054 L47.7459245,2.16713514 L42.8660106,2.16713514 L39.0819535,20.2490811 L39.0819535,20.2490811 Z M72.407896,2.65996396 C71.1808383,2.09030631 69.0665236,1.85607207 66.8219519,1.85607207 C62.829295,1.85607207 58.7063812,3.25585586 58.7063812,7.91899099 C58.7063812,13.0215495 65.778009,11.9337658 65.778009,14.8354595 C65.778009,16.7009009 63.4031804,16.9857297 61.8901239,16.9857297 C60.2977806,16.9857297 58.3665806,16.5706667 57.4009806,15.9485405 L56.2522659,19.6278919 C57.8446092,20.1197838 60.0117818,20.5601441 61.8901239,20.5601441 C66.1178096,20.5601441 70.7900676,19.2643604 70.7900676,14.2648649 C70.7900676,8.77347748 63.7165521,9.7329009 63.7165521,7.16663063 C63.7165521,5.71625225 65.2824665,5.43236036 67.2136665,5.43236036 C69.0146096,5.43236036 70.2926373,5.82025225 71.2327523,6.26061261 L72.407896,2.65996396 L72.407896,2.65996396 Z" id="NHS-rev"></path>
                    <path d="M11.4051818,29.9488288 L10.9985455,32.0893694 L5.71227273,32.0893694 L5.01518182,35.4363964 L9.73990909,35.4363964 L9.31390909,37.5769369 L4.56981818,37.5769369 L3.77590909,41.390991 L9.12027273,41.390991 L8.65554545,43.5315315 L0.600272727,43.5315315 L3.44672727,29.9488288 L11.4051818,29.9488288 Z M19.0344545,36.7012613 C19.0344545,36.2861241 18.9021377,35.9488301 18.6375,35.6893694 C18.3728623,35.4299086 18.0340021,35.3001802 17.6209091,35.3001802 C16.8592689,35.3001802 16.255775,35.5888259 15.8104091,36.1661261 C15.3650432,36.7434263 15.026183,37.5704451 14.7938182,38.6472072 L13.7675455,43.5315315 L11.1728182,43.5315315 L12.9736364,35.125045 C13.025273,34.8915304 13.0801361,34.6191007 13.1382273,34.3077477 C13.1963185,33.9963948 13.2382726,33.7304516 13.2640909,33.5099099 L15.8007273,33.5099099 L15.6264545,34.4828829 L15.6651818,34.4828829 C16.0653656,34.1066648 16.5074976,33.8115326 16.9915909,33.5974775 C17.4756842,33.3834224 17.9759065,33.2763964 18.4922727,33.2763964 C19.4862777,33.2763964 20.2769516,33.5682854 20.8643182,34.1520721 C21.4516848,34.7358588 21.7453636,35.5142294 21.7453636,36.4872072 C21.7453636,36.9282905 21.6937278,37.3920696 21.5904545,37.8785586 C21.4871813,38.3650475 21.4226365,38.6536932 21.3968182,38.7445045 L20.3705455,43.5315315 L17.7758182,43.5315315 L18.744,38.8028829 C18.7569092,38.7380177 18.808545,38.4850473 18.8989091,38.043964 C18.9892732,37.6028807 19.0344545,37.1553176 19.0344545,36.7012613 L19.0344545,36.7012613 Z M26.8767273,43.5315315 C25.7536307,43.5315315 24.8951848,43.1293734 24.3013636,42.325045 C23.7075425,41.5207167 23.4106364,40.5088349 23.4106364,39.2893694 C23.4106364,38.2644994 23.6139525,37.2915361 24.0205909,36.3704505 C24.4272293,35.4493648 25.0113598,34.7034263 25.773,34.1326126 C26.5346402,33.5617989 27.431813,33.2763964 28.4645455,33.2763964 C29.1229124,33.2763964 29.7167246,33.4255841 30.246,33.723964 C30.7752754,34.0223438 31.1948166,34.4374748 31.5046364,34.9693694 L31.7950909,33.5099099 L34.293,33.5099099 C34.2155451,33.7953167 34.1058189,34.2623391 33.9638182,34.910991 L32.2985455,42.7920721 C31.9370891,44.49154 31.3110045,45.7596355 30.4202727,46.5963964 C29.529541,47.4331573 28.2967351,47.8515315 26.7218182,47.8515315 C25.2372653,47.8515315 23.8947333,47.6245068 22.6941818,47.1704505 L23.3525455,45.0493694 C23.9592758,45.3088301 24.5079066,45.5034228 24.9984545,45.6331532 C25.4890025,45.7628835 25.9859975,45.8277477 26.4894545,45.8277477 C27.3156405,45.8277477 27.9643158,45.662344 28.4355,45.3315315 C28.9066842,45.0007191 29.2519989,44.5855881 29.4714545,44.0861261 C29.6909102,43.5866642 29.916817,42.9023467 30.1491818,42.0331532 L30.2653636,41.6245045 L30.2266364,41.6245045 C29.8909983,42.2342373 29.4262757,42.7045029 28.8324545,43.0353153 C28.2386334,43.3661278 27.5867308,43.5315315 26.8767273,43.5315315 L26.8767273,43.5315315 Z M30.6913636,37.4212613 C30.6913636,36.8115285 30.5267744,36.3055876 30.1975909,35.9034234 C29.8684074,35.5012593 29.4004576,35.3001802 28.7937273,35.3001802 C28.2257244,35.3001802 27.7416384,35.5109889 27.3414545,35.9326126 C26.9412707,36.3542363 26.6379101,36.8731501 26.4313636,37.4893694 C26.2248171,38.1055887 26.1215455,38.6990962 26.1215455,39.2699099 C26.1215455,39.8926157 26.2538623,40.4212591 26.5185,40.8558559 C26.7831377,41.2904526 27.2059062,41.5077477 27.7868182,41.5077477 C28.4064576,41.5077477 28.9357251,41.3131551 29.3746364,40.923964 C29.8135476,40.5347728 30.1427262,40.0288319 30.3621818,39.4061261 C30.5816375,38.7834203 30.6913636,38.1218053 30.6913636,37.4212613 L30.6913636,37.4212613 Z M40.5087273,28.9369369 L37.4299091,43.5315315 L34.8351818,43.5315315 L37.914,28.9369369 L40.5087273,28.9369369 Z M46.5114545,41.9942342 C46.0209066,42.6299131 45.5239116,43.0839626 45.0204545,43.3563964 C44.5169975,43.6288302 43.9425487,43.765045 43.2970909,43.765045 C42.3547226,43.765045 41.6060028,43.5088314 41.0509091,42.9963964 C40.4958154,42.4839614 40.2182727,41.7866711 40.2182727,40.9045045 C40.2182727,39.7369311 40.6926771,38.8515345 41.6415,38.2482883 C42.5903229,37.645042 44.0780808,37.3434234 46.1048182,37.3434234 L47.2472727,37.3434234 C47.2989093,36.9801784 47.3247273,36.6947758 47.3247273,36.4872072 C47.3247273,36.0201778 47.1214111,35.6861271 46.7147727,35.485045 C46.3081343,35.283963 45.8466389,35.1834234 45.3302727,35.1834234 C44.2459037,35.1834234 43.1550964,35.4428803 42.0578182,35.9618018 L42.4257273,33.8796396 C43.561733,33.4774755 44.6912671,33.2763964 45.8143636,33.2763964 C47.0536426,33.2763964 48.0089057,33.5390965 48.6801818,34.0645045 C49.3514579,34.5899125 49.6870909,35.3520671 49.6870909,36.350991 C49.6870909,36.7920743 49.5902737,37.5250399 49.3966364,38.5499099 L48.7963636,41.5855856 C48.6027263,42.5715365 48.4930001,43.2201786 48.4671818,43.5315315 L46.2790909,43.5315315 L46.5501818,41.9942342 L46.5114545,41.9942342 Z M42.6968182,40.7877477 C42.6968182,41.1380198 42.829135,41.4039631 43.0937727,41.5855856 C43.3584104,41.7672081 43.6649983,41.858018 44.0135455,41.858018 C44.8010039,41.858018 45.4270886,41.6277501 45.8918182,41.1672072 C46.3565478,40.7066644 46.7115442,39.9509962 46.9568182,38.9001802 L45.9886364,38.9001802 C44.9429948,38.9001802 44.1329574,39.0623407 43.5585,39.3866667 C42.9840426,39.7109926 42.6968182,40.178015 42.6968182,40.7877477 L42.6968182,40.7877477 Z M58.8460909,36.7012613 C58.8460909,36.2861241 58.7137741,35.9488301 58.4491364,35.6893694 C58.1844987,35.4299086 57.8456384,35.3001802 57.4325455,35.3001802 C56.6709053,35.3001802 56.0674113,35.5888259 55.6220455,36.1661261 C55.1766796,36.7434263 54.8378193,37.5704451 54.6054545,38.6472072 L53.5791818,43.5315315 L50.9844545,43.5315315 L52.7852727,35.125045 C52.8369093,34.8915304 52.8917724,34.6191007 52.9498636,34.3077477 C53.0079548,33.9963948 53.049909,33.7304516 53.0757273,33.5099099 L55.6123636,33.5099099 L55.4380909,34.4828829 L55.4768182,34.4828829 C55.877002,34.1066648 56.3191339,33.8115326 56.8032273,33.5974775 C57.2873206,33.3834224 57.7875429,33.2763964 58.3039091,33.2763964 C59.2979141,33.2763964 60.088588,33.5682854 60.6759545,34.1520721 C61.2633211,34.7358588 61.557,35.5142294 61.557,36.4872072 C61.557,36.9282905 61.5053642,37.3920696 61.4020909,37.8785586 C61.2988177,38.3650475 61.2342729,38.6536932 61.2084545,38.7445045 L60.1821818,43.5315315 L57.5874545,43.5315315 L58.5556364,38.8028829 C58.5685455,38.7380177 58.6201814,38.4850473 58.7105455,38.043964 C58.8009095,37.6028807 58.8460909,37.1553176 58.8460909,36.7012613 L58.8460909,36.7012613 Z M69.8833636,42.0526126 C69.4573615,42.6493724 68.9829572,43.0839626 68.4601364,43.3563964 C67.9373156,43.6288302 67.3273671,43.765045 66.6302727,43.765045 C65.5329945,43.765045 64.6874575,43.3693733 64.0936364,42.578018 C63.4998152,41.7866627 63.2029091,40.7877538 63.2029091,39.5812613 C63.2029091,38.5434182 63.390089,37.5412661 63.7644545,36.5747748 C64.1388201,35.6082835 64.7068144,34.81694 65.4684545,34.2007207 C66.2300947,33.5845014 67.146631,33.2763964 68.2180909,33.2763964 C69.4444607,33.2763964 70.4707231,33.7499052 71.2969091,34.6969369 L72.5555455,28.9369369 L75.1502727,28.9369369 L72.4974545,41.138018 C72.3941813,41.6050474 72.3070458,42.0850426 72.2360455,42.578018 C72.1650451,43.0709935 72.1166365,43.3888281 72.0908182,43.5315315 L69.6703636,43.5315315 L69.9220909,42.0526126 L69.8833636,42.0526126 Z M70.5223636,37.6742342 C70.5223636,37.0255823 70.3642289,36.4677501 70.0479545,36.0007207 C69.7316802,35.5336914 69.2572759,35.3001802 68.6247273,35.3001802 C68.0696336,35.3001802 67.5855475,35.5174753 67.1724545,35.9520721 C66.7593616,36.3866688 66.4463192,36.9217986 66.2333182,37.5574775 C66.0203171,38.1931563 65.9138182,38.7963935 65.9138182,39.3672072 C65.9138182,40.1066704 66.0525895,40.6872051 66.3301364,41.1088288 C66.6076832,41.5304526 66.9981793,41.7412613 67.5016364,41.7412613 C68.1083667,41.7412613 68.6408613,41.536939 69.0991364,41.1282883 C69.5574114,40.7196376 69.9091806,40.2007239 70.1544545,39.5715315 C70.3997285,38.9423392 70.5223636,38.3099131 70.5223636,37.6742342 L70.5223636,37.6742342 Z" id="England"></path>
                </g>
            </g>
        </g>
    </g>
</svg>